<svg width="24" height="24" viewBox="0 0 24 24" fill="none" xmlns="http://www.w3.org/2000/svg">
<path fill-rule="evenodd" clip-rule="evenodd" d="M6.61609 11.328C6.61609 8.72561 8.72573 6.61597 11.3281 6.61597C13.9305 6.61597 16.0401 8.72561 16.0401 11.328C16.0401 12.5827 15.5497 13.7228 14.7502 14.5672C14.7163 14.5933 14.6838 14.6219 14.6528 14.6529C14.6217 14.6839 14.5932 14.7165 14.5671 14.7503C13.7227 15.5497 12.5827 16.04 11.3281 16.04C8.72573 16.04 6.61609 13.9304 6.61609 11.328ZM15.3143 16.7287C14.1996 17.5528 12.8208 18.04 11.3281 18.04C7.62116 18.04 4.61609 15.0349 4.61609 11.328C4.61609 7.62104 7.62116 4.61597 11.3281 4.61597C15.0351 4.61597 18.0401 7.62104 18.0401 11.328C18.0401 12.8208 17.5528 14.1998 16.7286 15.3145L19.091 17.6769C19.4815 18.0674 19.4815 18.7006 19.091 19.0911C18.7005 19.4817 18.0673 19.4817 17.6768 19.0911L15.3143 16.7287Z" fill="#F5F5F5"/>
</svg>
